<svg width="463" height="471" viewBox="0 0 463 471" fill="none" xmlns="http://www.w3.org/2000/svg">
<path d="M231.5 0L431.985 117.75V353.25L231.5 471L31.0151 353.25V117.75L231.5 0Z" fill="url(#paint0_linear_39_3)"/>
<path d="M144.496 127.032V195H123.28V161.112L112.816 195H94.576L84.112 161.112V195H62.8V127.032H88.912L103.888 167.832L118.48 127.032H144.496ZM175.425 127.032V195H154.113V127.032H175.425ZM226.138 195L206.362 165.528V195H185.05V127.032H206.362V155.64L225.85 127.032H249.946L226.522 159.576L251.482 195H226.138ZM278.831 144.024V152.376H299.951V168.408H278.831V178.008H302.831V195H257.519V127.032H302.831V144.024H278.831ZM108.304 235.152C112.4 236.112 115.568 238.096 117.808 241.104C120.112 244.048 121.264 247.472 121.264 251.376C121.264 257.328 119.28 261.936 115.312 265.2C111.408 268.4 105.776 270 98.416 270H62.8V202.032H97.456C104.368 202.032 109.808 203.536 113.776 206.544C117.744 209.552 119.728 213.936 119.728 219.696C119.728 223.664 118.672 227.024 116.56 229.776C114.512 232.464 111.76 234.256 108.304 235.152ZM84.112 228.528H92.368C94.288 228.528 95.696 228.144 96.592 227.376C97.552 226.608 98.032 225.424 98.032 223.824C98.032 222.16 97.552 220.944 96.592 220.176C95.696 219.344 94.288 218.928 92.368 218.928H84.112V228.528ZM93.808 252.912C95.728 252.912 97.136 252.56 98.032 251.856C98.992 251.088 99.472 249.872 99.472 248.208C99.472 244.944 97.584 243.312 93.808 243.312H84.112V252.912H93.808ZM161.545 270.672C155.145 270.672 149.257 269.168 143.881 266.16C138.569 263.152 134.345 258.992 131.209 253.68C128.073 248.368 126.505 242.384 126.505 235.728C126.505 229.072 128.073 223.088 131.209 217.776C134.345 212.464 138.569 208.336 143.881 205.392C149.257 202.384 155.145 200.88 161.545 200.88C167.945 200.88 173.801 202.384 179.113 205.392C184.425 208.336 188.617 212.464 191.689 217.776C194.825 223.088 196.393 229.072 196.393 235.728C196.393 242.384 194.825 248.368 191.689 253.68C188.617 258.992 184.393 263.152 179.017 266.16C173.705 269.168 167.881 270.672 161.545 270.672ZM161.545 250.8C165.769 250.8 169.033 249.456 171.337 246.768C173.641 244.016 174.793 240.336 174.793 235.728C174.793 231.056 173.641 227.376 171.337 224.688C169.033 221.936 165.769 220.56 161.545 220.56C157.257 220.56 153.961 221.936 151.657 224.688C149.353 227.376 148.201 231.056 148.201 235.728C148.201 240.336 149.353 244.016 151.657 246.768C153.961 249.456 157.257 250.8 161.545 250.8ZM269.265 270H247.953L225.393 235.824V270H204.081V202.032H225.393L247.953 236.784V202.032H269.265V270ZM307.214 202.032C314.318 202.032 320.526 203.472 325.838 206.352C331.214 209.232 335.342 213.232 338.222 218.352C341.102 223.472 342.542 229.296 342.542 235.824C342.542 242.288 341.102 248.112 338.222 253.296C335.342 258.48 331.214 262.576 325.838 265.584C320.526 268.528 314.318 270 307.214 270H278.894V202.032H307.214ZM305.294 250.992C310.094 250.992 313.902 249.68 316.718 247.056C319.534 244.432 320.942 240.688 320.942 235.824C320.942 230.96 319.534 227.216 316.718 224.592C313.902 221.968 310.094 220.656 305.294 220.656H300.206V250.992H305.294ZM376.83 270.672C368.702 270.672 361.982 268.784 356.67 265.008C351.422 261.168 348.574 255.568 348.126 248.208H370.781C371.102 252.112 372.83 254.064 375.966 254.064C377.118 254.064 378.078 253.808 378.846 253.296C379.678 252.72 380.094 251.856 380.094 250.704C380.094 249.104 379.23 247.824 377.502 246.864C375.774 245.84 373.086 244.688 369.438 243.408C365.086 241.872 361.47 240.368 358.59 238.896C355.774 237.424 353.342 235.28 351.294 232.464C349.246 229.648 348.254 226.032 348.318 221.616C348.318 217.2 349.438 213.456 351.678 210.384C353.982 207.248 357.086 204.88 360.99 203.28C364.958 201.68 369.406 200.88 374.334 200.88C382.654 200.88 389.246 202.8 394.11 206.64C399.038 210.48 401.63 215.888 401.885 222.864H378.942C378.878 220.944 378.398 219.568 377.502 218.736C376.606 217.904 375.518 217.488 374.238 217.488C373.342 217.488 372.606 217.808 372.03 218.448C371.454 219.024 371.166 219.856 371.166 220.944C371.166 222.48 371.998 223.76 373.661 224.784C375.39 225.744 378.11 226.928 381.822 228.336C386.11 229.936 389.63 231.472 392.382 232.944C395.198 234.416 397.63 236.464 399.677 239.088C401.726 241.712 402.75 245.008 402.75 248.976C402.75 253.136 401.726 256.88 399.677 260.208C397.63 263.472 394.654 266.032 390.75 267.888C386.846 269.744 382.206 270.672 376.83 270.672ZM271.266 345.768C267.554 345.768 264.578 344.776 262.338 342.792C260.098 340.808 258.978 338.312 258.978 335.304C258.978 332.232 260.098 329.704 262.338 327.72C264.578 325.672 267.554 324.648 271.266 324.648C274.914 324.648 277.858 325.672 280.098 327.72C282.338 329.704 283.458 332.232 283.458 335.304C283.458 338.312 282.338 340.808 280.098 342.792C277.858 344.776 274.914 345.768 271.266 345.768Z" fill="white"/>
<path d="M91.12 277.032C98.224 277.032 104.432 278.472 109.744 281.352C115.12 284.232 119.248 288.232 122.128 293.352C125.008 298.472 126.448 304.296 126.448 310.824C126.448 317.288 125.008 323.112 122.128 328.296C119.248 333.48 115.12 337.576 109.744 340.584C104.432 343.528 98.224 345 91.12 345H62.8V277.032H91.12ZM89.2 325.992C94 325.992 97.808 324.68 100.624 322.056C103.44 319.432 104.848 315.688 104.848 310.824C104.848 305.96 103.44 302.216 100.624 299.592C97.808 296.968 94 295.656 89.2 295.656H84.112V325.992H89.2ZM155.456 294.024V302.376H176.576V318.408H155.456V328.008H179.456V345H134.144V277.032H179.456V294.024H155.456ZM255.936 277.032L233.088 345H205.536L182.688 277.032H205.344L219.36 323.784L233.28 277.032H255.936Z" fill="#5182FF"/>
<defs>
<linearGradient id="paint0_linear_39_3" x1="231.5" y1="0" x2="231.5" y2="471" gradientUnits="userSpaceOnUse">
<stop stop-color="#D90FFA"/>
<stop offset="0.9999" stop-color="#170C90"/>
<stop offset="1" stop-color="#00FFF0" stop-opacity="0"/>
</linearGradient>
</defs>
</svg>
